<?xml version="1.0" encoding="UTF-8" standalone="no"?>
<!-- Created with Inkscape (http://www.inkscape.org/) -->
<svg
   xmlns:svg="http://www.w3.org/2000/svg"
   xmlns="http://www.w3.org/2000/svg"
   version="1.0"
   width="64"
   height="64"
   id="svg2">
  <defs
     id="defs4" />
  <rect
     width="64"
     height="64"
     x="0"
     y="0"
     id="rect3791"
     style="fill:#ffffff;fill-opacity:1;fill-rule:nonzero;stroke:none" />
  <path
     d="M 5.5,-0.125 23.125,0 23.375,17.375 5.5,-0.125 z"
     id="path3755"
     style="fill:#0080ff;fill-opacity:1;fill-rule:evenodd;stroke:none" />
  <path
     d="m 46.4375,40.75 17.625,0.125 0.25,17.375 -17.875,-17.5 z"
     id="path3757"
     style="fill:#0080ff;fill-opacity:1;fill-rule:evenodd;stroke:none" />
  <path
     d="M 58.4375,0.5 40.8125,0.625 40.5625,18 58.4375,0.5 z"
     id="path3759"
     style="fill:#0080ff;fill-opacity:1;fill-rule:evenodd;stroke:none" />
  <path
     d="M 18.3125,40.5 0.6875,40.625 0.4375,58 18.3125,40.5 z"
     id="path3761"
     style="fill:#0080ff;fill-opacity:1;fill-rule:evenodd;stroke:none" />
  <path
     d="M 18.3125,23.5 0.6875,23.375 0.4375,6 18.3125,23.5 z"
     id="path3763"
     style="fill:#0080ff;fill-opacity:1;fill-rule:evenodd;stroke:none" />
  <path
     d="m 58.3125,63.625 -17.625,-0.125 -0.25,-17.375 17.875,17.5 z"
     id="path3765"
     style="fill:#0080ff;fill-opacity:1;fill-rule:evenodd;stroke:none" />
  <path
     d="M 5.3125,64 22.9375,63.875 23.1875,46.5 5.3125,64 z"
     id="path3767"
     style="fill:#0080ff;fill-opacity:1;fill-rule:evenodd;stroke:none" />
  <path
     d="m 46.3125,23.375 17.625,-0.125 0.25,-17.375 -17.875,17.5 z"
     id="path3769"
     style="fill:#0080ff;fill-opacity:1;fill-rule:evenodd;stroke:none" />
  <path
     d="M 3.5135744,0.1875 C 2.5715496,1.1295248 1.6295248,2.0715496 0.6875,3.0135744 7.5926332,9.918708 16.122767,18.948841 23.0279,25.853974 c -6.374673,0 -15.999346,0 -22.3740183,0 0,4.097351 0,8.194701 0,12.292052 6.3746723,0 15.9993453,0 22.3740183,0 -6.905133,6.905133 -15.6852668,15.935267 -22.5904,22.8404 0.9420248,0.942025 1.8840496,1.884049 2.8260744,2.826074 6.9051336,-6.905133 15.6852666,-15.935267 22.5903996,-22.8404 0,6.374673 0,16.249346 0,22.624019 4.097351,0 8.194701,0 12.292052,0 0,-6.374673 0,-16.249346 0,-22.624019 6.905133,6.905133 15.935267,15.935267 22.8404,22.8404 0.942025,-0.942025 1.884049,-1.884049 2.826074,-2.826074 -6.905133,-6.905133 -15.935267,-15.935267 -22.8404,-22.8404 6.374673,0 16.374346,0 22.749019,0 0,-4.097351 0,-8.194701 0,-12.292052 -6.374673,0 -16.374346,0 -22.749019,0 C 47.877233,18.948841 56.657367,10.043708 63.5625,3.1385744 62.620475,2.1965496 61.678451,1.2545248 60.736426,0.3125 c -6.905133,6.9051332 -15.685267,15.810267 -22.5904,22.7154 0,-6.374673 0,-16.499346 0,-22.8740183 -4.097351,0 -8.194701,0 -12.292052,0 0,6.3746723 0,16.4993453 0,22.8740183 C 18.948841,16.122767 10.418708,7.0926332 3.5135744,0.1875 z"
     id="rect3229"
     style="fill:#ff0000;fill-opacity:1;fill-rule:nonzero;stroke:none" />
  <g
     id="layer1">
    <path
       d="m 7,6.25 c 16,-4.5 59.75,-8 54.25,6.5 -5.951036,15.689094 7.071982,31.06516 -4.75,41.5 C 45.54203,63.922208 3.8528575,65.721425 6.25,51 8.8129802,35.260126 -4.1590996,14.945843 7,6.25 z"
       id="path3159"
       style="fill:none;stroke:#ffe000;stroke-width:4.99999905;stroke-linecap:round;stroke-linejoin:round;stroke-miterlimit:4;stroke-opacity:1;stroke-dasharray:9.9999979, 9.9999979;stroke-dashoffset:0" />
  </g>
</svg>
